<?xml version="1.0" encoding="UTF-8"?>
<svg width="25px" height="25px" viewBox="0 0 25 25" version="1.1" xmlns="http://www.w3.org/2000/svg" xmlns:xlink="http://www.w3.org/1999/xlink">
    <!-- Generator: Sketch 57.1 (83088) - https://sketch.com -->
    <title>icon</title>
    <desc>Created with Sketch.</desc>
    <g id="Page-1" stroke="none" stroke-width="1" fill="none" fill-rule="evenodd">
        <g id="Signup-Copy" transform="translate(-1000.000000, -421.000000)" fill="#888" fill-rule="nonzero">
            <g id="Group-4-Copy-2" transform="translate(779.000000, 382.000000)">
                <g id="icon" transform="translate(221.000000, 39.000000)">
                    <path d="M18.0883333,5.12166667 C19.0183333,5.12166667 19.7716667,4.37333333 19.7716667,3.44166667 L19.7716667,1.68333333 C19.7716667,0.750833333 19.0191667,0 18.0883333,0 C17.1575,0 16.4058333,0.75 16.4058333,1.68333333 L16.4058333,3.4425 C16.4066667,4.37333333 17.1583333,5.12166667 18.0883333,5.12166667 Z" id="Path"></path>
                    <path d="M24.0683333,2.91166667 L20.68,2.91166667 L20.68,3.7675 C20.68,5.18 19.5325,6.33083333 18.1175,6.33083333 C16.7008333,6.33083333 15.5558333,5.18 15.5558333,3.7675 L15.5558333,2.91166667 L8.71833333,2.91166667 L8.71833333,3.7675 C8.71833333,5.18 7.56916667,6.33083333 6.155,6.33083333 C4.74083333,6.33083333 3.5925,5.18083333 3.5925,3.7675 L3.5925,2.91166667 L0.173333333,2.86916667 L0.173333333,24.2675 L1.88333333,24.2675 L22.3866667,24.2675 L24.0941667,24.2625 L24.0683333,2.91166667 Z M22.385,22.5633333 L1.88333333,22.5633333 L1.88333333,8.89333333 L22.3866667,8.89333333 L22.3866667,22.5633333 L22.385,22.5633333 Z" id="Shape"></path>
                    <path d="M6.12833333,5.12166667 C7.05833333,5.12166667 7.8125,4.37333333 7.8125,3.44166667 L7.8125,1.68333333 C7.8125,0.75 7.05833333,0 6.12833333,0 C5.19833333,0 4.44666667,0.75 4.44666667,1.68333333 L4.44666667,3.4425 C4.44666667,4.37333333 5.1975,5.12166667 6.12833333,5.12166667 Z" id="Path"></path>
                    <rect id="Rectangle" x="8.72333333" y="10.7275" width="2.6925" height="2.37666667"></rect>
                    <rect id="Rectangle" x="13.0766667" y="10.7275" width="2.695" height="2.37666667"></rect>
                    <rect id="Rectangle" x="17.1141667" y="10.7275" width="2.6925" height="2.37666667"></rect>
                    <rect id="Rectangle" x="8.72333333" y="14.6741667" width="2.6925" height="2.375"></rect>
                    <rect id="Rectangle" x="13.0766667" y="14.6741667" width="2.695" height="2.375"></rect>
                    <rect id="Rectangle" x="17.1141667" y="14.6741667" width="2.6925" height="2.375"></rect>
                    <rect id="Rectangle" x="8.72333333" y="18.6991667" width="2.6925" height="2.375"></rect>
                    <rect id="Rectangle" x="4.44666667" y="14.6741667" width="2.69083333" height="2.375"></rect>
                    <rect id="Rectangle" x="4.44666667" y="18.6991667" width="2.69083333" height="2.375"></rect>
                    <rect id="Rectangle" x="13.0766667" y="18.6991667" width="2.695" height="2.375"></rect>
                    <rect id="Rectangle" x="17.1141667" y="18.6991667" width="2.6925" height="2.375"></rect>
                </g>
            </g>
        </g>
    </g>
</svg>
