<?xml version="1.0" encoding="UTF-8"?>
<svg width="18px" height="18px" viewBox="0 0 18 18" version="1.1" xmlns="http://www.w3.org/2000/svg" xmlns:xlink="http://www.w3.org/1999/xlink">
    <title>Group</title>
    <g id="Symbols" stroke="none" stroke-width="1" fill="none" fill-rule="evenodd">
        <g id="Component/Pickers/Date/Normal" transform="translate(-19.000000, -35.000000)" stroke="#B5B5BE" stroke-width="1.5">
            <g id="Component/Forms/Medium/Normal">
                <g id="Inputs/-Normal">
                    <g id="Group-11">
                        <g id="Group-18">
                            <g id="Element/Form/Normal">
                                <g id="Group" transform="translate(20.000000, 36.000000)">
                                    <path d="M1,2 L15,2 C15.5522847,2 16,2.44771525 16,3 L16,15 C16,15.5522847 15.5522847,16 15,16 L1,16 C0.44771525,16 6.76353751e-17,15.5522847 0,15 L0,3 C-6.76353751e-17,2.44771525 0.44771525,2 1,2 Z" id="Rectangle-Copy-3" transform="translate(8.000000, 9.000000) scale(1, -1) translate(-8.000000, -9.000000) "></path>
                                    <line x1="11" y1="12.5" x2="13" y2="12.5" id="Line-Copy"></line>
                                    <line x1="7" y1="12.5" x2="9" y2="12.5" id="Line-Copy-2"></line>
                                    <line x1="3" y1="12.5" x2="5" y2="12.5" id="Line-Copy-3"></line>
                                    <line x1="11" y1="8.5" x2="13" y2="8.5" id="Line-Copy-4"></line>
                                    <line x1="3" y1="8.5" x2="5" y2="8.5" id="Line-Copy-5"></line>
                                    <line x1="7" y1="8.5" x2="9" y2="8.5" id="Line-Copy-6"></line>
                                    <line x1="4" y1="0.5" x2="4" y2="1.5" id="Line-2-Copy" stroke-linecap="square"></line>
                                    <line x1="12" y1="0.5" x2="12" y2="1.5" id="Line-2-Copy-2" stroke-linecap="square"></line>
                                    <line x1="-2.49800181e-16" y1="5" x2="16" y2="5" id="Line-Copy-7"></line>
                                </g>
                            </g>
                        </g>
                    </g>
                </g>
            </g>
        </g>
    </g>
</svg>
